:SAMPLES-PER-SECOND 30
:FULLY-SPECIFIED
:DEGREES
619
root  60.8721 37.5838 4.94263 -48.8388 -83.0631 44.6278
RightUpLeg  -19.6071 -6.46777 -2.29557
RightLeg  4.79307 -5.63375 1.31122
RightFoot  -0.81265 -0.437974 5.2607
RightToes  -4.65661e-009 0 -3.6325e-017
Spine  7.07662 -0.750082 -3.0405
Spine1  5.78001 -0.743327 -0.991004
HEad  -12.6442 -7.92037 -3.63361
LeftShoulder1  -0.283119 4.26265 -31.1819
LeftArm  12.5059 -5.04235 -44.0769
LeftForeArm  18.323 -22.0899 -4.25198
LeftHand  -0.0168559 5.8614 2.68056
RightShoulder  -0.883953 -5.99305 28.9187
RightArm  13.8364 -9.84106 45.615
RightForeArm  21.6788 7.47008 6.98031
RightHand  -0.0820903 3.50657 -1.33229
LeftUpLeg  15.6869 7.62929 -6.84939
LeftLeg  11.7754 6.23749 -0.465048
LeftFoot  -20.8747 0.231234 1.24232
LeftToes  9.86798e-010 -1.28139e-010 1.4132e-011
620
root  59.5598 37.5429 5.10426 -37.7755 -83.5551 33.6122
RightUpLeg  -21.2652 -6.73486 -0.328931
RightLeg  10.2001 -3.97888 0.645101
RightFoot  3.93665 0.382981 -2.86741
RightToes  -4.65661e-009 0 -3.6325e-017
Spine  6.62772 -0.925132 -0.43062
Spine1  6.45847 -0.938853 -0.642934
HEad  -12.7289 -8.03185 -3.79691
LeftShoulder1  -0.27253 4.22839 -31.4445
LeftArm  12.9239 -3.54421 -44.0965
LeftForeArm  18.6429 -20.6582 -4.83436
LeftHand  0.000230125 6.44595 3.49986
RightShoulder  -0.97157 -6.21858 29.232
RightArm  13.875 -8.5606 45.1423
RightForeArm  21.7246 7.69118 6.9432
RightHand  -0.0655016 2.59131 -1.0527
LeftUpLeg  17.47 9.37172 -4.44307
LeftLeg  12.6899 2.75802 -0.3053
LeftFoot  -21.055 0.0540187 -0.811067
LeftToes  9.86798e-010 -1.28139e-010 1.4132e-011
621
root  58.1282 37.3934 5.2553 -29.3413 -84.9224 25.122
RightUpLeg  -22.2972 -5.68379 1.67689
RightLeg  15.6144 -2.68222 -0.696271
RightFoot  5.72115 0.577155 -3.60789
RightToes  -4.65661e-009 0 -3.6325e-017
Spine  6.69911 -0.788575 2.95928
Spine1  5.72219 -0.341212 -1.73994
HEad  -13.1348 -8.27412 -4.32985
LeftShoulder1  -0.320945 4.33986 -32.2626
LeftArm  11.775 -1.27146 -43.6328
LeftForeArm  20.8635 -19.1094 -5.58738
LeftHand  -0.0176165 6.22413 1.92672
RightShoulder  -1.09467 -6.54643 29.4542
RightArm  14.0893 -6.96724 44.6738
RightForeArm  22.3292 7.23269 7.00139
RightHand  0.0247215 0.296253 0.453665
LeftUpLeg  18.1139 12.2131 -1.33479
LeftLeg  16.8541 -1.21968 -0.441681
LeftFoot  -21.4161 -0.225335 -3.98901
LeftToes  9.86798e-010 -1.28139e-010 1.4132e-011
622
root  56.7454 37.3182 5.38057 -17.853 -86.6825 13.7298
RightUpLeg  -22.8127 -4.2782 3.32279
RightLeg  20.4747 -2.35167 -1.22822
RightFoot  3.85001 0.666473 -4.80269
RightToes  -4.65661e-009 0 -3.6325e-017
Spine  6.51087 -0.537499 6.75596
Spine1  5.49885 0.678189 -3.67488
HEad  -12.8186 -7.85321 -4.30472
LeftShoulder1  -0.297759 4.28513 -31.979
LeftArm  10.1705 2.27933 -43.721
LeftForeArm  22.8872 -18.1578 -6.03395
LeftHand  -0.0167515 6.26179 2.09922
RightShoulder  -1.07974 -6.45037 30.1047
RightArm  13.6097 -5.22774 44.5074
RightForeArm  20.4625 6.96791 6.93574
RightHand  -0.021831 2.08496 -0.558838
LeftUpLeg  16.8988 13.4041 1.19472
LeftLeg  23.7493 -3.58614 -1.39126
LeftFoot  -19.5671 -0.463896 -8.30173
LeftToes  9.86798e-010 -1.28139e-010 1.4132e-011
623
root  55.5048 37.2915 5.40785 4.95673 -87.3077 -8.74011
RightUpLeg  -22.5682 -3.84692 4.84551
RightLeg  23.2606 -2.50785 -1.40836
RightFoot  1.18256 0.62952 -5.64955
RightToes  -4.65661e-009 0 -3.6325e-017
Spine  6.38705 -0.39949 8.80723
Spine1  5.2993 1.07442 -3.13334
HEad  -12.2344 -7.46508 -4.21571
LeftShoulder1  -0.345267 4.40155 -32.3235
LeftArm  9.76224 6.15696 -43.3449
LeftForeArm  24.1199 -18.0653 -6.01765
LeftHand  -0.0282341 6.80164 0.66901
RightShoulder  -1.01254 -6.29914 29.6734
RightArm  12.8113 -3.8404 45.3759
RightForeArm  21.0316 7.8093 6.64073
RightHand  -0.050439 0.539513 -1.03397
LeftUpLeg  12.9267 12.7099 3.4914
LeftLeg  33.5528 -5.06606 -3.198
LeftFoot  -13.9427 -0.213828 -13.9655
LeftToes  9.86798e-010 -1.28139e-010 1.4132e-011
624
root  54.3592 37.3228 5.44192 22.9041 -85.9535 -26.3217
RightUpLeg  -21.8768 -4.7684 6.0663
RightLeg  25.045 -2.76086 -1.64421
RightFoot  -1.41506 0.502733 -5.87596
RightToes  -4.65661e-009 0 -3.6325e-017
Spine  6.66089 -0.963683 11.0167
Spine1  4.50573 0.871489 -3.20841
HEad  -11.708 -7.54756 -3.91475
LeftShoulder1  -0.448617 4.66249 -32.5704
LeftArm  11.4982 9.76133 -42.5477
LeftForeArm  23.1164 -18.7574 -5.7253
LeftHand  -0.0373331 6.90326 0.0240199
RightShoulder  -0.952715 -6.15164 29.4127
RightArm  12.0527 -1.93452 46.3781
RightForeArm  20.5171 8.12686 6.40884
RightHand  -0.0548957 1.24019 -1.08035
LeftUpLeg  6.32045 8.87179 4.19445
LeftLeg  45.0204 -3.82408 -3.68823
LeftFoot  -2.60337 1.03908 -14.5639
LeftToes  9.86798e-010 -1.28139e-010 1.4132e-011
625
root  53.2432 37.3962 5.4648 32.9338 -85.4304 -36.4854
RightUpLeg  -20.2484 -4.44627 6.93207
RightLeg  26.0095 -3.22916 -1.94345
RightFoot  -3.66509 0.352614 -5.61701
RightToes  -4.65661e-009 0 -3.6325e-017
Spine  6.39617 -0.762025 13.1462
Spine1  5.42624 1.55384 -3.81426
HEad  -11.7757 -8.64973 -3.4211
LeftShoulder1  -0.542319 4.89713 -32.7801
LeftArm  12.9577 11.6191 -42.3132
LeftForeArm  23.4541 -18.9213 -5.7121
LeftHand  -0.0312966 6.20278 0.317896
RightShoulder  -0.919106 -6.06805 29.2646
RightArm  11.9445 0.557036 47.162
RightForeArm  17.9008 9.32321 6.279
RightHand  -0.0852107 2.93977 -1.41394
LeftUpLeg  0.29748 6.18659 4.79311
LeftLeg  54.5417 -2.95116 -3.98103
LeftFoot  9.14046 1.80369 -10.0601
LeftToes  9.86798e-010 -1.28139e-010 1.4132e-011
626
root  52.1544 37.5465 5.51261 36.9835 -85.6003 -40.9406
RightUpLeg  -17.9693 -4.54965 6.99858
RightLeg  26.2275 -2.9114 -1.7304
RightFoot  -5.63915 0.231976 -5.41781
RightToes  -4.65661e-009 0 -3.6325e-017
Spine  6.73537 -0.254214 14.6915
Spine1  5.96398 2.64083 -4.77533
HEad  -11.8163 -9.80232 -3.07791
LeftShoulder1  -0.475272 4.72243 -32.8572
LeftArm  13.7019 13.7651 -42.0163
LeftForeArm  23.172 -19.5368 -5.35491
LeftHand  -0.036898 6.93413 -0.0200532
RightShoulder  -0.952355 -6.15468 29.3416
RightArm  13.3558 3.15931 47.4733
RightForeArm  15.4024 11.0491 6.34682
RightHand  -0.101115 2.94146 -1.6222
LeftUpLeg  -4.27349 4.56547 5.0673
LeftLeg  61.0654 -2.43121 -4.19927
LeftFoot  8.65267 1.37872 -8.0673
LeftToes  9.86798e-010 -1.28139e-010 1.4132e-011
627
root  50.9951 37.8055 5.55547 30.2198 -85.9119 -34.603
RightUpLeg  -15.0205 -5.20978 6.1519
RightLeg  25.4989 -2.41233 -1.3022
RightFoot  -7.37378 0.133164 -5.27747
RightToes  -4.65661e-009 0 -3.6325e-017
Spine  5.97086 0.0903638 14.7404
Spine1  7.29291 3.17043 -5.08941
HEad  -11.3654 -10.354 -2.81075
LeftShoulder1  -0.417592 4.57604 -32.7959
LeftArm  11.1462 15.6864 -42.0342
LeftForeArm  24.5318 -18.9742 -5.51122
LeftHand  -0.0308049 5.93933 -0.0384784
RightShoulder  -0.838025 -5.88515 28.5975
RightArm  15.1192 5.84246 48.597
RightForeArm  13.8633 12.7158 6.27299
RightHand  -0.162675 3.08606 -2.46416
LeftUpLeg  -8.41608 2.54065 4.4085
LeftLeg  64.3819 -1.88938 -3.65702
LeftFoot  5.98876 0.94114 -6.44125
LeftToes  9.86798e-010 -1.28139e-010 1.4132e-011
628
root  49.8465 38.047 5.59313 29.9579 -86.6904 -34.5382
RightUpLeg  -12.1668 -5.01696 5.5385
RightLeg  24.325 -1.99213 -1.01495
RightFoot  -8.68312 0.0606579 -5.13391
RightToes  -4.65661e-009 0 -3.6325e-017
Spine  6.31959 0.633682 15.4503
Spine1  6.67146 4.04523 -6.36998
HEad  -10.3559 -10.7076 -3.08284
LeftShoulder1  -0.363993 4.4452 -32.5326
LeftArm  9.80808 17.5361 -41.6742
LeftForeArm  24.4733 -18.2933 -5.84905
LeftHand  -0.0321995 7.11451 0.435388
RightShoulder  -0.909758 -6.10885 28.3494
RightArm  18.0024 7.83591 49.0893
RightForeArm  12.3761 15.2503 5.85962
RightHand  -0.151337 2.80542 -2.38219
LeftUpLeg  -12.3036 1.35061 3.97737
LeftLeg  64.7884 -1.22028 -2.19096
LeftFoot  5.21996 0.700503 -5.00266
LeftToes  9.86798e-010 -1.28139e-010 1.4132e-011
629
root  48.6683 38.2468 5.62283 29.7099 -87.6431 -34.1993
RightUpLeg  -9.55487 -5.78624 4.75266
RightLeg  23.0879 -0.506608 -0.202896
RightFoot  -10.0969 -0.013531 -5.04127
RightToes  -4.65661e-009 0 -3.6325e-017
Spine  6.02013 1.10239 15.9402
Spine1  6.30812 4.70224 -7.6961
HEad  -10.3552 -10.5469 -3.7738
LeftShoulder1  -0.389413 4.50994 -32.5648
LeftArm  7.57077 18.9877 -40.9336
LeftForeArm  26.7718 -17.3266 -6.18382
LeftHand  -0.0463196 7.0458 -0.562937
RightShoulder  -0.882774 -6.07368 27.7546
RightArm  19.9669 9.54771 49.9779
RightForeArm  10.418 17.3903 5.34522
RightHand  -0.154391 4.47539 -2.09377
LeftUpLeg  -15.7521 0.124306 3.52678
LeftLeg  62.7127 -1.6795 -2.93382
LeftFoot  2.69742 0.376905 -3.20114
LeftToes  9.86798e-010 -1.28139e-010 1.4132e-011
